<svg xmlns="http://www.w3.org/2000/svg" width="32" height="32" viewBox="0 0 32 32">
    <g fill="none" fill-rule="evenodd">
        <g fill="#B0C63A">
            <g>
                <g>
                    <g>
                        <g>
                            <g>
                                <g>
                                    <path fill-opacity=".6" d="M2.696 16.881L18.793 16.881 18.793 0 2.696 0z" transform="translate(-84 -367) translate(0 -823) translate(0 823) translate(24 16) translate(0 335) translate(8 16) translate(52)"/>
                                    <path d="M31.099 29.275H.587c-.325 0-.587-.262-.587-.587V17.143c0-.325.262-.587.587-.587h5.099c.325 0 .587.262.587.587v7.049h7.613c.325 0 .587.262.587.586 0 .325-.262.587-.587.587h-8.2c-.325 0-.587-.262-.587-.587V17.73H1.174V28.1h29.34V17.73h-3.925v7.048c0 .325-.263.587-.587.587h-9.836c-.325 0-.587-.262-.587-.587v-9.386c0-.324.262-.586.587-.586.325 0 .587.262.587.586v8.8h8.662v-7.05c0-.324.262-.586.587-.586H31.1c.325 0 .587.262.587.587v11.545c-.002.325-.264.587-.59.587" transform="translate(-84 -367) translate(0 -823) translate(0 823) translate(24 16) translate(0 335) translate(8 16) translate(52)"/>
                                    <path d="M28.336 31.485c-.325 0-.587-.262-.587-.587v-1.453H3.935v1.265c0 .325-.262.587-.587.587-.325 0-.587-.262-.587-.587v-1.852c0-.324.262-.586.587-.586h24.988c.325 0 .587.262.587.586v2.04c0 .323-.262.587-.587.587M24.053 22.649H5.846c-.324 0-.587-.263-.587-.587v-8.309c0-.324.263-.586.587-.586h19.991c.325 0 .587.262.587.586v1.667c0 .324-.262.587-.587.587-.325 0-.587-.263-.587-.587v-1.08H6.433v7.135h17.62c.325 0 .587.262.587.587 0 .324-.262.587-.587.587" transform="translate(-84 -367) translate(0 -823) translate(0 823) translate(24 16) translate(0 335) translate(8 16) translate(52)"/>
                                </g>
                            </g>
                        </g>
                    </g>
                </g>
            </g>
        </g>
    </g>
</svg>
