<svg xmlns="http://www.w3.org/2000/svg" width="48" height="48" viewBox="0 0 48 48">
    <g fill="none" fill-rule="evenodd">
        <g>
            <g>
                <g>
                    <g>
                        <path d="M0 0H48V48H0z" transform="translate(-600 -506) translate(200 490) translate(384) translate(16 16)"/>
                        <g fill="#DCA38C">
                            <path d="M47.023 40.81h-2.237c-.486 0-.879-.392-.879-.878s.393-.878.879-.878h1.358v-7.4l-8.553-6.95v8.484c0 .485-.393.878-.879.878s-.878-.393-.878-.878V22.86c0-.34.196-.647.5-.794.308-.146.668-.102.932.112l10.31 8.374c.205.167.325.416.325.682v8.697c0 .486-.395.878-.878.878M30.182 40.81H17.874c-.486 0-.878-.392-.878-.878s.392-.878.878-.878h12.308c.486 0 .879.392.879.878s-.393.878-.879.878M3.564 40.81H.94c-.486 0-.879-.392-.879-.878V18.353c0-.486.393-.878.879-.878h31.901c.486 0 .879.392.879.878v15.256c0 .486-.393.878-.879.878H6.42c-.486 0-.879-.392-.879-.878s.393-.878.879-.878h25.544v-13.5H1.82v19.825h1.746c.486 0 .878.393.878.879 0 .485-.395.875-.881.875" transform="translate(-600 -506) translate(200 490) translate(384) translate(16 16) translate(0 1)"/>
                            <path fill-opacity=".6" d="M3.037 26.262L29.122 26.262 29.122 0.187 3.037 0.187z" transform="translate(-600 -506) translate(200 490) translate(384) translate(16 16) translate(0 1)"/>
                            <path d="M10.466 37.599c-1.898 0-3.441 1.542-3.441 3.439s1.543 3.44 3.44 3.44c1.898 0 3.442-1.543 3.442-3.44.002-1.897-1.544-3.44-3.441-3.44m0 8.639c-2.867 0-5.198-2.33-5.198-5.196 0-2.866 2.33-5.196 5.198-5.196 2.867 0 5.198 2.33 5.198 5.196 0 2.866-2.331 5.196-5.198 5.196M37.556 37.599c-1.898 0-3.441 1.542-3.441 3.439s1.543 3.44 3.44 3.44c1.898 0 3.441-1.543 3.441-3.44s-1.543-3.44-3.44-3.44m0 8.639c-2.867 0-5.198-2.33-5.198-5.196 0-2.866 2.33-5.196 5.198-5.196 2.867 0 5.197 2.33 5.197 5.196 0 2.866-2.33 5.196-5.197 5.196" transform="translate(-600 -506) translate(200 490) translate(384) translate(16 16) translate(0 1)"/>
                        </g>
                    </g>
                </g>
            </g>
        </g>
    </g>
</svg>
