<svg xmlns="http://www.w3.org/2000/svg" width="48" height="48" viewBox="0 0 48 48">
    <g fill="none" fill-rule="evenodd">
        <g>
            <g>
                <g>
                    <path d="M0 0H48V48H0z" transform="translate(-216 -506) translate(200 490) translate(16 16)"/>
                    <g>
                        <path fill="#5E40E0" d="M17.206 43.264L17.235 43.291 17.256 43.271z" transform="translate(-216 -506) translate(200 490) translate(16 16) translate(1)"/>
                        <path fill="#5C2ECE" d="M24.513 28.119H1.626c-.893 0-1.626-.73-1.626-1.626v-13.66c0-.44.172-.852.489-1.16L11.879.467c.635-.617 1.642-.625 2.276-.009l11.504 11.215c.317.308.489.724.489 1.16v13.651c-.009.905-.733 1.635-1.635 1.635" opacity=".2" transform="translate(-216 -506) translate(200 490) translate(16 16) translate(1)"/>
                        <path fill="#FFF" d="M24.318 30.878v6.367c0 4.961 3.4 8.985 7.595 8.985h5.117c4.168-.032 7.52-4.056 7.49-8.985v-.043c.038-.166.056-.337.056-.512l-.024-7.257c-.006-1.117-.91-2.021-2.03-2.021h-4.937" transform="translate(-216 -506) translate(200 490) translate(16 16) translate(1)"/>
                        <path fill="#5E47DC" d="M36.986 47.1h-5.073c-4.668 0-8.467-4.423-8.467-9.857v-6.368c0-.483.39-.873.872-.873.483 0 .873.39.873.873v6.368c0 4.472 3.016 8.112 6.722 8.112h5.12c3.67-.03 6.644-3.666 6.617-8.106v-.05c0-.067.009-.134.024-.198.023-.093.032-.194.032-.314l-.023-7.254c-.003-.634-.524-1.152-1.158-1.152h-4.937c-.483 0-.872-.39-.872-.872 0-.483.39-.872.872-.872h4.937c1.594 0 2.897 1.293 2.903 2.887l.023 7.258c0 .215-.017.413-.055.604.008 5.376-3.732 9.773-8.357 9.81h-.053v.004z" transform="translate(-216 -506) translate(200 490) translate(16 16) translate(1)"/>
                        <path fill="#FFF" d="M31.009 37.472L37.6 37.51 37.6 12.475 21.037 12.475 21.037 37.51 27.794 37.51 27.794 15.886" transform="translate(-216 -506) translate(200 490) translate(16 16) translate(1)"/>
                        <path fill="#5E47DC" d="M27.794 38.382h-6.757c-.483 0-.872-.39-.872-.872V12.475c0-.482.39-.872.872-.872H37.6c.483 0 .873.39.873.872V37.51c0 .233-.093.454-.256.62-.163.162-.384.252-.617.252h-.006l-6.591-.037c-.483-.003-.87-.396-.867-.878.003-.48.393-.867.873-.867h.005l5.713.032V13.348H21.91v23.29h5.012V15.886c0-.483.39-.872.872-.872.483 0 .873.39.873.872V37.51c0 .483-.39.872-.873.872" transform="translate(-216 -506) translate(200 490) translate(16 16) translate(1)"/>
                        <path fill="#D1C8E8" d="M30.412 18.584v-1.96c0-.604.498-1.104 1.106-1.104h1.96c.605 0 1.105.497 1.105 1.105v1.96c0 .604-.497 1.104-1.105 1.104h-1.96c-.608 0-1.106-.497-1.106-1.105" transform="translate(-216 -506) translate(200 490) translate(16 16) translate(1)"/>
                        <path fill="#FFF" d="M21.191 14.15c1.408 0 2.549 1.14 2.549 2.547 0 1.406-1.141 2.547-2.549 2.547-1.407 0-2.548-1.14-2.548-2.547 0-1.407 1.14-2.547 2.548-2.547" transform="translate(-216 -506) translate(200 490) translate(16 16) translate(1)"/>
                        <path fill="#5E47DC" d="M21.191 15.019c-.925 0-1.675.753-1.675 1.675s.753 1.675 1.675 1.675c.925 0 1.676-.753 1.676-1.675s-.75-1.675-1.676-1.675m0 5.097c-1.888 0-3.42-1.535-3.42-3.42 0-1.883 1.535-3.419 3.42-3.419 1.888 0 3.421 1.536 3.421 3.42s-1.533 3.419-3.42 3.419" transform="translate(-216 -506) translate(200 490) translate(16 16) translate(1)"/>
                        <path fill="#FFF" d="M20.641 20.302c1.438 0 2.604 1.165 2.604 2.603 0 1.437-1.166 2.602-2.604 2.602-1.437 0-2.603-1.165-2.603-2.602 0-1.438 1.166-2.603 2.603-2.603" transform="translate(-216 -506) translate(200 490) translate(16 16) translate(1)"/>
                        <path fill="#5E47DC" d="M20.641 21.172c-.954 0-1.73.776-1.73 1.73 0 .953.777 1.73 1.73 1.73.955 0 1.731-.777 1.731-1.73 0-.954-.776-1.73-1.73-1.73m0 5.207c-1.918 0-3.477-1.558-3.477-3.474 0-1.917 1.56-3.475 3.476-3.475 1.917 0 3.476 1.558 3.476 3.475 0 1.916-1.559 3.474-3.476 3.474" transform="translate(-216 -506) translate(200 490) translate(16 16) translate(1)"/>
                        <path fill="#FFF" stroke="#5C2ECE" d="M20.641 26.635c1.408 0 2.549 1.14 2.549 2.547 0 1.407-1.141 2.547-2.549 2.547-1.407 0-2.548-1.14-2.548-2.547 0-1.406 1.141-2.547 2.548-2.547" transform="translate(-216 -506) translate(200 490) translate(16 16) translate(1)"/>
                        <path fill="#5E47DC" d="M20.641 27.507c-.925 0-1.675.754-1.675 1.675 0 .922.753 1.675 1.675 1.675.923 0 1.676-.753 1.676-1.675 0-.921-.75-1.675-1.676-1.675m0 5.095c-1.887 0-3.42-1.536-3.42-3.42s1.536-3.42 3.42-3.42c1.885 0 3.421 1.536 3.421 3.42s-1.536 3.42-3.42 3.42" transform="translate(-216 -506) translate(200 490) translate(16 16) translate(1)"/>
                        <path fill="#FFF" d="M21.191 31.703c1.097 0 1.987.89 1.987 1.986 0 1.097-.89 1.986-1.987 1.986s-1.986-.89-1.986-1.986c0-1.097.89-1.986 1.986-1.986" transform="translate(-216 -506) translate(200 490) translate(16 16) translate(1)"/>
                        <path fill="#5E47DC" d="M21.191 32.575c-.613 0-1.114.5-1.114 1.114 0 .613.5 1.114 1.114 1.114.614 0 1.114-.5 1.114-1.114 0-.613-.5-1.114-1.114-1.114m0 3.972c-1.577 0-2.86-1.282-2.86-2.858s1.284-2.858 2.86-2.858c1.577 0 2.86 1.282 2.86 2.858s-1.283 2.858-2.86 2.858" transform="translate(-216 -506) translate(200 490) translate(16 16) translate(1)"/>
                        <path fill="#FFF" d="M44.427 28.752l-4.2-6.06c-.995-1.351-2.83-1.694-4.102-.755-1.27.93-1.492 2.786-.497 4.143l2.45 3.51h2.393" transform="translate(-216 -506) translate(200 490) translate(16 16) translate(1)"/>
                        <path fill="#5E47DC" d="M40.474 30.465H38.08c-.285 0-.553-.14-.715-.372l-2.45-3.51c-1.265-1.727-.96-4.134.695-5.347.771-.57 1.731-.802 2.706-.657 1.03.154 1.98.738 2.615 1.6l4.215 6.076c.273.396.174.94-.221 1.212-.396.274-.94.175-1.213-.22l-4.2-6.06c-.347-.47-.882-.8-1.455-.887-.51-.076-1.012.044-1.408.337-.882.646-1.021 1.96-.311 2.928l2.202 3.152h1.94c.483 0 .873.39.873.873 0 .482-.396.875-.88.875" transform="translate(-216 -506) translate(200 490) translate(16 16) translate(1)"/>
                    </g>
                </g>
            </g>
        </g>
    </g>
</svg>
