<svg xmlns="http://www.w3.org/2000/svg" width="48" height="48" viewBox="0 0 48 48">
    <g fill="none" fill-rule="evenodd">
        <g>
            <g>
                <g>
                    <g>
                        <path d="M0 0H48V48H0z" transform="translate(-792 -506) translate(200 490) translate(576) translate(16 16)"/>
                        <g>
                            <path fill="#5E40E0" d="M19.932 45.258L19.959 45.285 19.98 45.264z" transform="translate(-792 -506) translate(200 490) translate(576) translate(16 16) translate(1)"/>
                            <path fill="#4FCB9E" fill-opacity=".6" d="M44.852 46.855h-22.72c-.887 0-1.614-.724-1.614-1.615V31.678c0-.433.168-.85.482-1.151L32.308 19.4c.628-.613 1.628-.619 2.26-.006l11.42 11.133c.315.308.482.718.482 1.151v13.55c-.003.903-.72 1.627-1.618 1.627" transform="translate(-792 -506) translate(200 490) translate(576) translate(16 16) translate(1)"/>
                            <path fill="#5E40E0" d="M20.087 44.354L20.117 44.381 20.138 44.36z" transform="translate(-792 -506) translate(200 490) translate(576) translate(16 16) translate(1)"/>
                            <path fill="#4FCB9E" d="M.898 37.113c-.237 0-.464-.093-.632-.26-.17-.168-.266-.398-.266-.637V.897C0 .401.401 0 .898 0h25.707c.496 0 .897.4.897.897v20.88c0 .497-.4.898-.897.898s-.898-.4-.898-.897V1.795H1.795v33.517l23.912-.158v-5.19c0-.496.4-.897.898-.897.496 0 .897.4.897.897v6.081c0 .494-.398.895-.891.898l-25.707.17H.898z" transform="translate(-792 -506) translate(200 490) translate(576) translate(16 16) translate(1)"/>
                            <path fill="#4FCB9E" d="M21.981 19.038H4.731c-.497 0-.898-.4-.898-.897s.401-.898.898-.898h17.25c.497 0 .898.401.898.898 0 .496-.4.897-.898.897M9.049 33.332H4.73c-.497 0-.898-.4-.898-.897 0-.496.401-.897.898-.897h4.318c.496 0 .897.4.897.897 0 .496-.4.897-.897.897M5.629 12.826h15.715V5.74H5.63v7.086zm16.613 1.794H4.73c-.497 0-.898-.4-.898-.897v-8.88c0-.497.401-.898.898-.898h17.51c.497 0 .898.401.898.897v8.88c0 .497-.4.898-.897.898zM4.432 29.818L8.582 29.818 8.582 25.669 4.432 25.669zM13.31 22.663H4.73c-.496 0-.897-.4-.897-.897s.401-.897.898-.897h8.579c.496 0 .897.4.897.897 0 .496-.4.897-.897.897" transform="translate(-792 -506) translate(200 490) translate(576) translate(16 16) translate(1)"/>
                        </g>
                    </g>
                </g>
            </g>
        </g>
    </g>
</svg>
