<svg xmlns="http://www.w3.org/2000/svg" width="31" height="32" viewBox="0 0 31 32">
    <g fill="none" fill-rule="evenodd">
        <g>
            <g>
                <g>
                    <g>
                        <g>
                            <g>
                                <g>
                                    <path fill="#5E40E0" d="M12.366 30.124L12.383 30.141 12.397 30.128zM12.467 29.54L12.486 29.557 12.499 29.544z" transform="translate(-245 -367) translate(0 -823) translate(0 823) translate(24 16) translate(160 335) translate(61 16)"/>
                                    <path fill="#CB4FA8" d="M11.863 17.325h-.006c-.156-.001-.303-.065-.412-.177l-3.624-3.763c-.222-.23-.215-.597.015-.819.23-.223.598-.215.82.015l3.215 3.337 7.71-7.708c.225-.226.593-.226.82 0 .225.227.225.594 0 .82l-8.128 8.125c-.11.11-.257.17-.41.17" transform="translate(-245 -367) translate(0 -823) translate(0 823) translate(24 16) translate(160 335) translate(61 16)"/>
                                    <g fill="#CB4FA8" fill-opacity=".6">
                                        <path d="M.02 15.909c0-3.459 2.806-6.264 6.266-6.264s6.266 2.805 6.266 6.264H.02zM6.284.103c2.265 0 4.102 1.835 4.102 4.1 0 2.265-1.837 4.1-4.102 4.1-2.266 0-4.102-1.835-4.102-4.1 0-2.265 1.836-4.1 4.102-4.1" transform="translate(-245 -367) translate(0 -823) translate(0 823) translate(24 16) translate(160 335) translate(61 16) translate(16.613 15.226)"/>
                                    </g>
                                    <path fill="#CB4FA8" d="M12.77 25.573c-3.015 0-5.904-1.054-8.233-3.02C1.927 20.35.332 17.26.046 13.857c-.286-3.402.77-6.714 2.977-9.322C5.229 1.927 8.318.332 11.722.046c3.406-.286 6.717.77 9.326 2.975 2.609 2.204 4.205 5.294 4.49 8.696.028.32-.21.6-.53.626-.316.028-.599-.21-.626-.53C23.845 5.427 18.211.668 11.82 1.204c-3.097.26-5.905 1.708-7.91 4.08-2.006 2.372-2.966 5.383-2.706 8.478.26 3.095 1.71 5.902 4.082 7.907 2.373 2.004 5.387 2.963 8.481 2.704.787-.065 1.567-.21 2.317-.43.308-.092.63.084.72.392.09.307-.085.63-.393.719-.826.242-1.683.402-2.547.476-.366.028-.731.044-1.093.044" transform="translate(-245 -367) translate(0 -823) translate(0 823) translate(24 16) translate(160 335) translate(61 16)"/>
                                </g>
                            </g>
                        </g>
                    </g>
                </g>
            </g>
        </g>
    </g>
</svg>
